<svg width="41" height="17" viewBox="0 0 41 17" fill="none" xmlns="http://www.w3.org/2000/svg">
<path opacity="0.5" d="M39.4785 17H40.4014L37.8037 9.9541H36.9346L34.3369 17H35.2598L35.9678 14.9834H38.7705L39.4785 17ZM37.3301 11.0918H37.4082L38.5117 14.2363H36.2266L37.3301 11.0918Z" fill="white"/>
<path opacity="0.7" d="M28.6641 17H30.8281L26.8203 5.72656H24.5547L20.5547 17H22.5938L23.5625 14.1172H27.7109L28.6641 17ZM25.5781 7.875H25.7109L27.2422 12.5234H24.0312L25.5781 7.875Z" fill="white"/>
<path d="M12.9141 17H16.7461L10.875 0.0898438H6.71484L0.84375 17H4.39453L5.69531 12.9688H11.6367L12.9141 17ZM8.57812 3.60547H8.78906L10.8867 10.2383H6.45703L8.57812 3.60547Z" fill="white"/>
</svg>
