<svg width="57" height="35" viewBox="0 0 57 35" fill="none" xmlns="http://www.w3.org/2000/svg">
<path opacity="0.3" d="M57 1H4C2.34315 1 1 2.34315 1 4V29" stroke="white" stroke-width="2"/>
<path opacity="0.5" d="M23.7539 29C27.3516 29 29.4844 27.2305 29.4844 24.2539C29.4844 22.0156 28.0195 20.4336 25.7109 20.1406V19.9531C27.3398 19.6602 28.6289 18.0664 28.6289 16.3086C28.6289 13.7188 26.7305 12.0898 23.625 12.0898H17.1562V29H23.7539ZM19.2656 13.9531H23.1797C25.2773 13.9531 26.4961 14.9492 26.4961 16.6719C26.4961 18.4648 25.1953 19.3789 22.6406 19.3789H19.2656V13.9531ZM19.2656 27.1367V21.1953H23.2383C25.9336 21.1953 27.3164 22.1914 27.3164 24.1484C27.3164 26.1055 25.9805 27.1367 23.4375 27.1367H19.2656Z" fill="white"/>
<path d="M15 2V11H2" stroke="white" stroke-width="2"/>
</svg>
